<svg width="22" height="22" viewBox="0 0 22 22" fill="none" xmlns="http://www.w3.org/2000/svg">
<g clip-path="url(#clip0_2162_1664)">
<path d="M15.3753 0.0109944C15.3285 -0.0412556 13.6441 0.0316194 12.1784 1.62249C10.7126 3.21199 10.9381 5.03524 10.9711 5.08199C11.0041 5.12874 13.0611 5.20162 14.3743 3.35224C15.6874 1.50287 15.422 0.0646194 15.3753 0.0109944ZM19.932 16.1439C19.866 16.0119 16.7351 14.4471 17.0266 11.4386C17.3181 8.43012 19.3298 7.60374 19.3614 7.51437C19.393 7.42499 18.5405 6.42812 17.6371 5.92349C16.9737 5.56806 16.2397 5.36424 15.488 5.32674C15.3395 5.32262 14.8239 5.19612 13.7638 5.48624C13.0653 5.67737 11.4909 6.29612 11.0578 6.32087C10.6233 6.34562 9.33077 5.60312 7.94064 5.40649C7.05102 5.23462 6.10777 5.58662 5.43264 5.85749C4.75889 6.127 3.47739 6.89424 2.5809 8.93337C1.6844 10.9711 2.15327 14.1996 2.48877 15.2034C2.82427 16.2071 3.34814 17.8489 4.23914 19.0479C5.03114 20.4009 6.08165 21.34 6.52027 21.659C6.95889 21.978 8.19639 22.1897 9.05439 21.7511C9.74464 21.3276 10.9904 21.0842 11.4826 21.1021C11.9735 21.12 12.9415 21.3139 13.9329 21.8432C14.718 22.1141 15.4605 22.0014 16.2044 21.6989C16.9483 21.395 18.0249 20.2427 19.2816 17.9066C19.7583 16.8204 19.9751 16.2328 19.932 16.1439Z" fill="black"/>
<path d="M15.3753 0.0109944C15.3285 -0.0412556 13.6441 0.0316194 12.1784 1.62249C10.7126 3.21199 10.9381 5.03524 10.9711 5.08199C11.0041 5.12874 13.0611 5.20162 14.3743 3.35224C15.6874 1.50287 15.422 0.0646194 15.3753 0.0109944ZM19.932 16.1439C19.866 16.0119 16.7351 14.4471 17.0266 11.4386C17.3181 8.43012 19.3298 7.60374 19.3614 7.51437C19.393 7.42499 18.5405 6.42812 17.6371 5.92349C16.9737 5.56806 16.2397 5.36424 15.488 5.32674C15.3395 5.32262 14.8239 5.19612 13.7638 5.48624C13.0653 5.67737 11.4909 6.29612 11.0578 6.32087C10.6233 6.34562 9.33077 5.60312 7.94064 5.40649C7.05102 5.23462 6.10777 5.58662 5.43264 5.85749C4.75889 6.127 3.47739 6.89424 2.5809 8.93337C1.6844 10.9711 2.15327 14.1996 2.48877 15.2034C2.82427 16.2071 3.34814 17.8489 4.23914 19.0479C5.03114 20.4009 6.08165 21.34 6.52027 21.659C6.95889 21.978 8.19639 22.1897 9.05439 21.7511C9.74464 21.3276 10.9904 21.0842 11.4826 21.1021C11.9735 21.12 12.9415 21.3139 13.9329 21.8432C14.718 22.1141 15.4605 22.0014 16.2044 21.6989C16.9483 21.395 18.0249 20.2427 19.2816 17.9066C19.7583 16.8204 19.9751 16.2328 19.932 16.1439Z" fill="black"/>
</g>
<defs>
<clipPath id="clip0_2162_1664">
<rect width="22" height="22" fill="white"/>
</clipPath>
</defs>
</svg>
