<svg width="24" height="24" viewBox="0 0 24 24" fill="none" xmlns="http://www.w3.org/2000/svg">
<path d="M18.5018 2.5L19.0312 1.96874C18.9207 1.85872 18.7788 1.78583 18.6251 1.7602L18.5018 2.5ZM22 5.986L22.6113 6.42057C22.8236 6.12187 22.789 5.71344 22.5294 5.45474L22 5.986ZM19.5018 9.5L19.0518 10.1C19.2135 10.2213 19.4175 10.2722 19.6173 10.2411C19.8171 10.2099 19.9958 10.0994 20.113 9.93457L19.5018 9.5ZM12.0018 5L11.5137 5.56944L12.0018 5.98781L12.4898 5.56944L12.0018 5ZM15.5018 2L15.6251 1.2602C15.4061 1.22371 15.1822 1.28609 15.0137 1.43056L15.5018 2ZM5.50175 2.5L5.37845 1.7602C5.22471 1.78583 5.08276 1.85872 4.97235 1.96874L5.50175 2.5ZM2.00351 5.986L1.47411 5.45474C1.2145 5.71344 1.17988 6.12187 1.39224 6.42057L2.00351 5.986ZM4.50175 9.5L3.89049 9.93457C4.00766 10.0994 4.18643 10.2099 4.38624 10.2411C4.58605 10.2722 4.78997 10.2213 4.95175 10.1L4.50175 9.5ZM8.50175 2L8.98985 1.43056C8.8213 1.28609 8.59742 1.22371 8.37845 1.2602L8.50175 2ZM17.9724 3.03126L21.4706 6.51726L22.5294 5.45474L19.0312 1.96874L17.9724 3.03126ZM17.0518 8.6L19.0518 10.1L19.9518 8.9L17.9518 7.4L17.0518 8.6ZM21.3887 5.55143L18.8905 9.06543L20.113 9.93457L22.6113 6.42057L21.3887 5.55143ZM12.4898 5.56944L15.9898 2.56944L15.0137 1.43056L11.5137 4.43056L12.4898 5.56944ZM15.3785 2.7398L18.3785 3.2398L18.6251 1.7602L15.6251 1.2602L15.3785 2.7398ZM4.97235 1.96874L1.47411 5.45474L2.53291 6.51726L6.03115 3.03126L4.97235 1.96874ZM6.05175 7.4L4.05175 8.9L4.95175 10.1L6.95175 8.6L6.05175 7.4ZM1.39224 6.42057L3.89049 9.93457L5.11302 9.06543L2.61478 5.55143L1.39224 6.42057ZM12.4898 4.43056L8.98985 1.43056L8.01366 2.56944L11.5137 5.56944L12.4898 4.43056ZM8.37845 1.2602L5.37845 1.7602L5.62505 3.2398L8.62505 2.7398L8.37845 1.2602Z" fill="#323135"/>
<path d="M6.59944 13.3062L7.33245 13.465C7.33465 13.4548 7.33664 13.4446 7.33842 13.4343L6.59944 13.3062ZM5 20.6921L4.26699 20.5334L4.13691 21.134L4.7003 21.3796L5 20.6921ZM17.4034 13.3062L16.6644 13.4343C16.6662 13.4445 16.6681 13.4546 16.6703 13.4647L17.4034 13.3062ZM19 20.6921L19.2998 21.3796L19.8629 21.134L19.7331 20.5336L19 20.6921ZM5.86643 13.1475L4.26699 20.5334L5.73301 20.8508L7.33245 13.465L5.86643 13.1475ZM5.39838 6.94593C6.02098 7.78787 6.24094 8.79694 6.24716 9.89357C6.25344 11.0024 6.04318 12.1238 5.86045 13.1782L7.33842 13.4343C7.51361 12.4235 7.75434 11.1559 7.74713 9.88507C7.73986 8.60201 7.48185 7.24059 6.60445 6.05407L5.39838 6.94593ZM16.6703 13.4647L18.2669 20.8506L19.7331 20.5336L18.1365 13.1478L16.6703 13.4647ZM17.3984 6.05407C16.521 7.24059 16.263 8.60201 16.2557 9.88507C16.2485 11.1559 16.4892 12.4235 16.6644 13.4343L18.1424 13.1782C17.9596 12.1238 17.7494 11.0024 17.7557 9.89357C17.7619 8.79694 17.9819 7.78787 18.6044 6.94593L17.3984 6.05407ZM4.7003 21.3796C6.81623 22.302 9.42326 22.75 12.0005 22.75C14.5778 22.75 17.1845 22.302 19.2998 21.3796L18.7002 20.0046C16.8165 20.8261 14.4234 21.25 12.0005 21.25C9.57765 21.25 7.18417 20.8261 5.2997 20.0046L4.7003 21.3796Z" fill="#323135"/>
</svg>
