<svg width="28" height="28" viewBox="0 0 28 28" fill="none" xmlns="http://www.w3.org/2000/svg">
<path d="M25.171 11.7765L24 11.191V10.5C24 10.1022 23.842 9.72064 23.5607 9.43934C23.2794 9.15804 22.8978 9 22.5 9H21.5V8.5C21.5 8.10218 21.342 7.72064 21.0607 7.43934C20.7794 7.15804 20.3978 7 20 7H18.5C18.1022 7 17.7207 7.15804 17.4393 7.43934C17.158 7.72064 17 8.10218 17 8.5V12H11V8.5C11 8.10218 10.842 7.72064 10.5607 7.43934C10.2794 7.15804 9.89783 7 9.50001 7H8.00001C7.60218 7 7.22065 7.15804 6.93935 7.43934C6.65804 7.72064 6.50001 8.10218 6.50001 8.5V9H5.50001C5.10218 9 4.72065 9.15804 4.43935 9.43934C4.15804 9.72064 4.00001 10.1022 4.00001 10.5V11.191L2.82901 11.7765C2.57932 11.9004 2.36931 12.0917 2.22279 12.3288C2.07627 12.5659 1.99909 12.8393 2.00001 13.118V14.882C1.99909 15.1607 2.07627 15.4341 2.22279 15.6712C2.36931 15.9083 2.57932 16.0996 2.82901 16.2235L4.00001 16.809V17.5C4.00001 17.8978 4.15804 18.2794 4.43935 18.5607C4.72065 18.842 5.10218 19 5.50001 19H6.50001V19.5C6.50001 19.8978 6.65804 20.2794 6.93935 20.5607C7.22065 20.842 7.60218 21 8.00001 21H9.50001C9.89783 21 10.2794 20.842 10.5607 20.5607C10.842 20.2794 11 19.8978 11 19.5V16H17V19.5C17 19.8978 17.158 20.2794 17.4393 20.5607C17.7207 20.842 18.1022 21 18.5 21H20C20.3978 21 20.7794 20.842 21.0607 20.5607C21.342 20.2794 21.5 19.8978 21.5 19.5V19H22.5C22.8978 19 23.2794 18.842 23.5607 18.5607C23.842 18.2794 24 17.8978 24 17.5V16.809L25.171 16.2235C25.4207 16.0996 25.6307 15.9083 25.7772 15.6712C25.9237 15.4341 26.0009 15.1607 26 14.882V13.118C26.0009 12.8393 25.9237 12.5659 25.7772 12.3288C25.6307 12.0917 25.4207 11.9004 25.171 11.7765ZM3.27651 15.329C3.19325 15.2878 3.12321 15.2241 3.07433 15.145C3.02546 15.066 2.99971 14.9749 3.00001 14.882V13.118C2.99971 13.0251 3.02546 12.934 3.07433 12.855C3.12321 12.7759 3.19325 12.7122 3.27651 12.671L4.00001 12.309V15.691L3.27651 15.329ZM5.50001 18C5.3674 18 5.24022 17.9473 5.14645 17.8536C5.05269 17.7598 5.00001 17.6326 5.00001 17.5V10.5C5.00001 10.3674 5.05269 10.2402 5.14645 10.1464C5.24022 10.0527 5.3674 10 5.50001 10H6.50001V18H5.50001ZM10 19.5C10 19.6326 9.94733 19.7598 9.85356 19.8536C9.75979 19.9473 9.63262 20 9.50001 20H8.00001C7.8674 20 7.74022 19.9473 7.64645 19.8536C7.55269 19.7598 7.50001 19.6326 7.50001 19.5V8.5C7.50001 8.36739 7.55269 8.24021 7.64645 8.14645C7.74022 8.05268 7.8674 8 8.00001 8H9.50001C9.63262 8 9.75979 8.05268 9.85356 8.14645C9.94733 8.24021 10 8.36739 10 8.5V19.5ZM11 15V13H17V15H11ZM20.5 19.5C20.5 19.6326 20.4473 19.7598 20.3536 19.8536C20.2598 19.9473 20.1326 20 20 20H18.5C18.3674 20 18.2402 19.9473 18.1465 19.8536C18.0527 19.7598 18 19.6326 18 19.5V8.5C18 8.36739 18.0527 8.24021 18.1465 8.14645C18.2402 8.05268 18.3674 8 18.5 8H20C20.1326 8 20.2598 8.05268 20.3536 8.14645C20.4473 8.24021 20.5 8.36739 20.5 8.5V19.5ZM23 17.5C23 17.6326 22.9473 17.7598 22.8536 17.8536C22.7598 17.9473 22.6326 18 22.5 18H21.5V10H22.5C22.6326 10 22.7598 10.0527 22.8536 10.1464C22.9473 10.2402 23 10.3674 23 10.5V17.5ZM25 14.882C25.0003 14.9749 24.9746 15.066 24.9257 15.145C24.8768 15.2241 24.8068 15.2878 24.7235 15.329L24 15.691V12.309L24.7235 12.671C24.8068 12.7122 24.8768 12.7759 24.9257 12.855C24.9746 12.934 25.0003 13.0251 25 13.118V14.882Z" fill="#323135"/>
</svg>
