<svg width="23" height="20" viewBox="0 0 23 20" fill="none" xmlns="http://www.w3.org/2000/svg">
<path d="M20.34 2.60999C19.8292 2.099 19.2228 1.69364 18.5554 1.41708C17.8879 1.14052 17.1725 0.998169 16.45 0.998169C15.7275 0.998169 15.0121 1.14052 14.3446 1.41708C13.6772 1.69364 13.0708 2.099 12.56 2.60999L11.5 3.66999L10.44 2.60999C9.4083 1.5783 8.00903 0.998704 6.55 0.998704C5.09096 0.998704 3.69169 1.5783 2.66 2.60999C1.6283 3.64169 1.04871 5.04096 1.04871 6.49999C1.04871 7.95903 1.6283 9.3583 2.66 10.39L3.72 11.45L11.5 19.23L19.28 11.45L20.34 10.39C20.851 9.87924 21.2563 9.27281 21.5329 8.60535C21.8095 7.93789 21.9518 7.22248 21.9518 6.49999C21.9518 5.77751 21.8095 5.0621 21.5329 4.39464C21.2563 3.72718 20.851 3.12075 20.34 2.60999Z" stroke="#452CE8" stroke-width="1.5" stroke-linecap="round" stroke-linejoin="round"/>
</svg>
