<svg width="12" height="10" viewBox="0 0 12 10" fill="none" xmlns="http://www.w3.org/2000/svg">
<path d="M10.4201 1.30506C10.1647 1.04956 9.86147 0.846881 9.52774 0.7086C9.19401 0.570319 8.8363 0.499146 8.47506 0.499146C8.11382 0.499146 7.75611 0.570319 7.42238 0.7086C7.08865 0.846881 6.78544 1.04956 6.53006 1.30506L6.00006 1.83506L5.47006 1.30506C4.95421 0.789212 4.25458 0.499413 3.52506 0.499413C2.79554 0.499413 2.09591 0.789212 1.58006 1.30506C1.06421 1.8209 0.774414 2.52054 0.774414 3.25006C0.774414 3.97957 1.06421 4.67921 1.58006 5.19506L2.11006 5.72506L6.00006 9.61506L9.89006 5.72506L10.4201 5.19506C10.6756 4.93968 10.8782 4.63647 11.0165 4.30274C11.1548 3.96901 11.226 3.6113 11.226 3.25006C11.226 2.88881 11.1548 2.53111 11.0165 2.19738C10.8782 1.86365 10.6756 1.56044 10.4201 1.30506Z" fill="#DE1135"/>
</svg>
