<svg width="12" height="11" viewBox="0 0 12 11" fill="none" xmlns="http://www.w3.org/2000/svg">
<path d="M10.42 1.30506C10.1646 1.04956 9.86141 0.846881 9.52768 0.7086C9.19395 0.570319 8.83624 0.499146 8.475 0.499146C8.11376 0.499146 7.75605 0.570319 7.42232 0.7086C7.08859 0.846881 6.78538 1.04956 6.53 1.30506L6 1.83506L5.47 1.30506C4.95415 0.789212 4.25451 0.499413 3.525 0.499413C2.79548 0.499413 2.09584 0.789212 1.58 1.30506C1.06415 1.8209 0.774353 2.52054 0.774353 3.25006C0.774353 3.97957 1.06415 4.67921 1.58 5.19506L2.11 5.72506L6 9.61506L9.89 5.72506L10.42 5.19506C10.6755 4.93968 10.8782 4.63647 11.0165 4.30274C11.1547 3.96901 11.2259 3.6113 11.2259 3.25006C11.2259 2.88881 11.1547 2.53111 11.0165 2.19738C10.8782 1.86365 10.6755 1.56044 10.42 1.30506Z" stroke="#323135" stroke-linecap="round" stroke-linejoin="round"/>
</svg>
