<svg width="64" height="61" viewBox="0 0 64 61" fill="none" xmlns="http://www.w3.org/2000/svg">
<path d="M60.7494 43.6833C60.7494 44.836 59.8162 45.7753 58.6574 45.7753C57.5046 45.7753 56.5653 44.8421 56.5653 43.6833C56.5653 42.5305 57.4985 41.5912 58.6574 41.5912C59.8162 41.5912 60.7494 42.5244 60.7494 43.6833Z" fill="#FBFBFC"/>
<path d="M43.2992 16.7182H40.829V11.6253C40.829 6.58116 36.7242 2.47022 31.6739 2.47022C26.6298 2.47022 22.5189 6.57506 22.5189 11.6253V16.7182H20.0486V11.6253C20.0486 5.21491 25.2635 0 31.6739 0C38.0843 0 43.2992 5.21491 43.2992 11.6253V16.7182Z" fill="#FBFBFC"/>
<path d="M47.538 38.5172C47.4222 38.6453 47.2941 38.7612 47.1721 38.8893C47.2941 38.7673 47.4161 38.6453 47.538 38.5172Z" fill="#FBFBFC"/>
<path d="M45.7938 40.2372C45.5011 40.5116 45.2022 40.7739 44.9033 41.0423C45.2022 40.78 45.5011 40.5116 45.7938 40.2372Z" fill="#FBFBFC"/>
<path d="M48.3676 37.6023C48.2639 37.7182 48.1602 37.8341 48.0504 37.95C48.1541 37.8341 48.2639 37.7243 48.3676 37.6023Z" fill="#FBFBFC"/>
<path d="M46.6719 39.3955C46.5317 39.5358 46.3853 39.67 46.245 39.8042C46.3914 39.67 46.5317 39.5358 46.6719 39.3955Z" fill="#FBFBFC"/>
<path d="M48.0504 37.95C47.8796 38.139 47.7091 38.3342 47.5322 38.5172C47.7152 38.3342 47.8796 38.139 48.0504 37.95Z" fill="#FBFBFC"/>
<path d="M46.245 39.8042C46.0925 39.9505 45.9463 40.0969 45.7938 40.2311C45.9463 40.0969 46.0986 39.9505 46.245 39.8042Z" fill="#FBFBFC"/>
<path d="M48.3676 37.6023C49.4349 36.3824 50.3925 35.0772 51.1732 33.6926C51.7344 32.6741 52.204 31.6006 52.4846 30.4722L52.4724 30.2831C51.8564 32.9485 50.2644 35.4309 48.3676 37.6023Z" fill="#FBFBFC"/>
<path d="M51.9966 24.2387L51.6612 19.9814C51.4843 17.7063 49.5874 15.9558 47.3063 15.9558H16.3096C14.0406 15.9558 12.1498 17.688 11.9608 19.9509C11.1556 29.4475 9.20387 52.5883 9.20387 52.5883C9.20387 52.5883 12.9183 53.3629 22.11 51.8991C28.2764 50.9171 34.1623 48.3554 39.4748 45.0984C39.5419 45.0557 39.6028 45.0191 39.6699 44.9764C44.6165 41.9206 49.4593 37.9622 51.7527 32.4606C51.9723 31.936 52.1613 31.3993 52.3138 30.8565C52.3199 30.826 52.3321 30.7955 52.3382 30.765C52.3809 30.6064 52.4236 30.4478 52.4602 30.2953C52.4663 30.2892 51.9966 24.2387 51.9966 24.2387ZM21.6038 21.6526C20.7438 21.6526 20.0484 20.9573 20.0484 20.0973C20.0484 19.2373 20.7438 18.5419 21.6038 18.5419C22.4638 18.5419 23.1591 19.2373 23.1591 20.0973C23.1591 20.9573 22.4638 21.6526 21.6038 21.6526ZM42.0609 21.6526C41.2009 21.6526 40.5055 20.9573 40.5055 20.0973C40.5055 19.2373 41.2009 18.5419 42.0609 18.5419C42.9209 18.5419 43.6162 19.2373 43.6162 20.0973C43.6162 20.9573 42.9209 21.6526 42.0609 21.6526Z" fill="#FBFBFC"/>
<path d="M8.97209 54.046L8.80741 55.4184C8.49024 58.0228 10.5213 60.3161 13.1379 60.3161H50.1668C52.7103 60.3161 54.7108 58.157 54.5218 55.6197L53.3202 39.6639C53.3507 40.0359 51.4111 42.988 49.7277 44.6348C41.2557 52.9116 29.3194 54.8085 17.6026 54.7902C12.2352 54.778 8.97209 54.046 8.97209 54.046Z" fill="#FBFBFC"/>
<path d="M59.5171 35.0589C61.646 35.0589 63.3719 33.333 63.3719 31.2041C63.3719 29.0752 61.646 27.3494 59.5171 27.3494C57.3882 27.3494 55.6623 29.0752 55.6623 31.2041C55.6623 33.333 57.3882 35.0589 59.5171 35.0589Z" fill="#FBFBFC"/>
<path d="M55.6623 38.6636C56.2485 38.6636 56.7236 38.1884 56.7236 37.6023C56.7236 37.0162 56.2485 36.541 55.6623 36.541C55.0762 36.541 54.6011 37.0162 54.6011 37.6023C54.6011 38.1884 55.0762 38.6636 55.6623 38.6636Z" fill="#FBFBFC"/>
<path d="M8.12429 48.7335C8.12429 49.3191 7.64854 49.7948 7.06301 49.7948C6.47747 49.7948 6.00173 49.3191 6.00173 48.7335C6.00173 48.148 6.47747 47.6723 7.06301 47.6723C7.64854 47.6723 8.12429 48.148 8.12429 48.7335Z" fill="#FBFBFC"/>
<path d="M6.00173 52.7957C6.00173 54.4547 4.65987 55.7965 3.00086 55.7965C1.34185 55.7965 0 54.4547 0 52.7957C0 51.1367 1.34185 49.7948 3.00086 49.7948C4.65987 49.7948 6.00173 51.1367 6.00173 52.7957Z" fill="#FBFBFC"/>
</svg>
