<svg width="22" height="22" viewBox="0 0 22 22" fill="none" xmlns="http://www.w3.org/2000/svg">
<path fill-rule="evenodd" clip-rule="evenodd" d="M11 21.75C5.06294 21.75 0.25 16.9371 0.25 11C0.25 5.06294 5.06294 0.25 11 0.25C16.9371 0.25 21.75 5.06294 21.75 11C21.75 16.9371 16.9371 21.75 11 21.75ZM11.6478 5.6221C11.5134 5.39168 11.2668 5.25 11 5.25C10.7333 5.25 10.4866 5.39168 10.3522 5.6221L8.76099 8.34985L5.81661 9.09243C5.55988 9.15718 5.35631 9.35249 5.281 9.60632C5.20568 9.86016 5.26979 10.1349 5.44966 10.3292L7.43203 12.4704L6.67799 15.836C6.61669 16.1096 6.71312 16.3946 6.92799 16.5747C7.14286 16.7549 7.44026 16.8001 7.69898 16.692L11 15.3128L14.3011 16.692C14.5598 16.8001 14.8572 16.7549 15.072 16.5747C15.2869 16.3946 15.3833 16.1096 15.322 15.836L14.568 12.4704L16.5504 10.3292C16.7302 10.1349 16.7943 9.86016 16.719 9.60632C16.6437 9.35249 16.4402 9.15718 16.1834 9.09243L13.239 8.34985L11.6478 5.6221Z" fill="#F6BC2F"/>
</svg>
